<?xml version="1.0" encoding="UTF-8" standalone="no"?>
<svg
   xmlns:svg="http://www.w3.org/2000/svg"
   xmlns="http://www.w3.org/2000/svg"
   version="1.1"
   width="498.22043"
   height="397.83176"
   id="svg3575">
  <defs
     id="defs3577" />
  <g
     transform="translate(-100.88979,-333.4463)"
     id="layer1">
    <path
       d="m 538.12045,707.76014 c 7.29932,3.37638 14.38002,4.46338 22.22588,4.46338 5.22247,0 12.30924,-1.41492 12.30924,-7.40255 0,-4.682 -4.0383,-6.32161 -13.29302,-9.47938 l -4.90061,-1.63355 c -9.80732,-3.15778 -16.77872,-8.39239 -16.77872,-19.93042 0,-17.7564 18.52156,-22.54771 32.13643,-22.54771 7.0807,0 13.83348,0.86839 20.80486,2.50193 l -0.54653,14.92048 c -5.98763,-2.28332 -12.09064,-3.37032 -18.50941,-3.37032 -4.79739,0 -12.64324,0.86839 -12.64324,7.07462 0,4.68809 3.92292,5.66579 10.34778,7.73655 l 6.21232,1.95539 c 10.77893,3.49178 18.62479,7.95516 18.62479,20.69558 0,17.65317 -15.90425,23.53148 -31.04336,23.53148 -8.71424,0 -17.10056,-0.87446 -25.49294,-3.16385 l 0.54653,-15.35163 z m -50.02765,17.32161 0,-24.94641 -26.7925,-47.71276 23.3068,0 15.1391,32.24573 14.70794,-32.24573 22.32911,0 -27.2358,47.71276 0,24.94641 -21.45465,0 z m -83.14115,-17.32161 c 7.29932,3.37638 14.38002,4.46338 22.2198,4.46338 5.22855,0 12.30925,-1.41492 12.30925,-7.40255 0,-4.682 -4.03223,-6.32161 -13.29301,-9.47938 l -4.90062,-1.63355 c -9.80125,-3.15778 -16.77264,-8.39239 -16.77264,-19.93042 0,-17.7564 18.52155,-22.54771 32.13642,-22.54771 7.07463,0 13.83348,0.86839 20.80487,2.50193 l -0.54654,14.92048 c -5.99369,-2.28332 -12.09063,-3.37032 -18.52155,-3.37032 -4.78525,0 -12.6311,0.86839 -12.6311,7.07462 0,4.68809 3.92292,5.66579 10.34779,7.73655 l 6.20623,1.95539 c 10.78502,3.49178 18.63087,7.95516 18.63087,20.69558 0,17.65317 -15.90425,23.53148 -31.04335,23.53148 -8.72032,0 -17.10663,-0.87446 -25.49295,-3.16385 l 0.54653,-15.35163 z m -67.28731,17.32161 0,-72.65917 54.46554,0 0,14.05209 -33.44205,0 0,14.92049 32.13642,0 0,13.94886 -32.13642,0 0,15.68563 34.31044,0 0,14.0521 -55.33393,0 z m -80.0514,0 0,-72.65917 28.20743,0 c 23.20357,0 41.39721,8.82962 41.39721,35.2942 0,23.85941 -16.01356,37.36497 -39.43575,37.36497 l -30.16888,0 z m 21.46073,-14.0521 4.78523,0 c 15.36379,0 20.92027,-10.01985 20.92027,-23.31287 0,-13.06833 -5.9937,-21.24211 -20.47697,-21.24211 l -5.22853,0 0,44.55498 z M 171.45732,688.80621 c 0,-23.52541 14.38002,-37.47427 37.80221,-37.47427 23.84727,0 37.89936,13.40232 37.89936,37.47427 0,23.85334 -14.37394,37.4682 -37.89936,37.4682 -11.9874,0 -21.24818,-3.15777 -27.89165,-9.58262 -6.64348,-6.43093 -9.91056,-15.79494 -9.91056,-27.88558 m 37.80221,23.42219 c 12.7404,0 15.46095,-13.29302 15.46095,-23.42219 0,-10.12916 -2.72055,-23.42218 -15.46095,-23.42218 -12.30925,0 -15.36379,13.61487 -15.36379,23.42218 0,4.90063 0.87446,10.6757 3.05454,15.35772 2.28331,4.68807 6.20624,8.06447 12.30925,8.06447 m -42.58866,11.1105 c -5.22855,2.0647 -11.22225,2.93916 -18.19364,2.93916 -24.83711,0 -42.58744,-12.52786 -42.58744,-37.47427 0,-23.52543 19.17133,-37.46821 42.58744,-37.46821 6.54023,0 12.74648,0.54653 17.97502,2.17401 l -0.64977,15.25447 c -4.46947,-1.63353 -9.26078,-2.50192 -14.48933,-2.50192 -13.61486,0 -22.98495,8.81747 -22.98495,22.54165 0,14.2707 8.60493,22.54771 22.98495,22.54771 5.22855,0 9.91056,-0.86839 14.70187,-2.93915 l 0.65585,14.92655 z"
       id="path110"
       style="fill:#636362;fill-opacity:1;fill-rule:nonzero;stroke:none" />
    <path
       d="m 267.27634,469.09556 2.23474,-5.10709 80.72364,43.88092 80.26211,-43.88092 2.0647,5.1496 -80.00706,43.44369 0,94.94576 -5.1071,-0.006 0,-94.92147 -80.17103,-43.50441 z"
       id="path114"
       style="fill:#d1050c;fill-opacity:1;fill-rule:nonzero;stroke:none" />
    <path
       d="m 181.80753,422.40667 1.58496,-5.016 81.29448,43.94163 -2.05863,5.17389 -80.82081,-44.09952 z"
       id="path118"
       style="fill:#c5c6c6;fill-opacity:1;fill-rule:nonzero;stroke:none" />
    <path
       d="m 435.46668,461.33413 1.90074,5.17388 80.8208,-44.4153 -2.05863,-4.70022 -80.66291,43.94164 z"
       id="path122"
       style="fill:#c5c6c6;fill-opacity:1;fill-rule:nonzero;stroke:none" />
    <path
       d="m 267.27634,469.09556 0,88.47233 3.85613,7.06856 76.3149,42.89107 0,-94.92755 -80.17103,-43.50441 z"
       id="path126"
       style="fill:#e3000f;fill-opacity:1;fill-rule:nonzero;stroke:none" />
    <path
       d="m 438.486,379.9346 -5.30748,0 -75.19754,37.81435 0,3.71645 77.48085,39.8669 80.66899,-43.94164 L 438.486,379.9346 z"
       id="path130"
       style="fill:#b1b2b3;fill-opacity:1;fill-rule:nonzero;stroke:none" />
    <path
       d="m 432.56032,557.84966 0,-88.70916 -80.001,43.44369 0,94.93968 76.08415,-42.50242 3.91685,-7.17179 z"
       id="path134"
       style="fill:#a50b03;fill-opacity:1;fill-rule:nonzero;stroke:none" />
    <path
       d="m 181.80753,422.40667 0,87.29423 4.17191,7.65152 73.01139,41.10573 3.63751,-1.98576 0,-89.9662 -80.82081,-44.09953 z"
       id="path138"
       style="fill:#dadada;fill-opacity:1;fill-rule:nonzero;stroke:none" />
    <path
       d="m 437.36803,466.50923 0,89.99048 3.30351,1.80358 73.35145,-40.96604 4.16584,-7.64546 0,-87.59787 -80.8208,44.41531 z"
       id="path142"
       style="fill:#9c9d9d;fill-opacity:1;fill-rule:nonzero;stroke:none" />
    <path
       d="m 353.33965,423.60298 -5.61112,0 -78.21564,40.38915 80.72364,43.87483 80.26212,-43.87483 -77.159,-40.38915 z"
       id="path146"
       style="fill:#c00808;fill-opacity:1;fill-rule:nonzero;stroke:none" />
    <path
       d="m 354.13699,338.4463 -7.29325,0 -73.9162,35.95005 0,3.09704 74.70565,37.94187 4.42695,0 75.60441,-38.38517 0,-3.13349 -73.52756,-35.4703 z"
       id="path150"
       style="fill:#b1b2b3;fill-opacity:1;fill-rule:nonzero;stroke:none" />
    <path
       d="m 267.40448,379.9346 -5.30749,0 -78.70753,37.45606 81.30055,43.94164 77.08612,-39.97013 0,-3.52213 -74.37165,-37.90544 z"
       id="path154"
       style="fill:#b1b2b3;fill-opacity:1;fill-rule:nonzero;stroke:none" />
  </g>
</svg>
